<?xml version="1.0" encoding="iso-8859-1"?>
<!-- Generator: Adobe Illustrator 19.0.0, SVG Export Plug-In . SVG Version: 6.00 Build 0)  -->
<svg version="1.1" id="Layer_1" xmlns="http://www.w3.org/2000/svg" xmlns:xlink="http://www.w3.org/1999/xlink" x="0px" y="0px"
	 viewBox="0 0 512 512" style="enable-background:new 0 0 512 512;" xml:space="preserve">
<rect x="273.444" y="318.11" transform="matrix(-0.7071 -0.7071 0.7071 -0.7071 334.8156 808.2964)" style="fill:#092339;" width="122.734" height="33.391"/>
<rect x="115.823" y="160.49" transform="matrix(-0.7071 -0.7071 0.7071 -0.7071 177.1934 427.7667)" style="fill:#134A79;" width="122.734" height="33.391"/>
<rect x="61.004" y="392.566" transform="matrix(-0.7071 -0.7071 0.7071 -0.7071 -174.4592 796.3471)" style="fill:#FB8454;" width="33.391" height="83.477"/>
<g>
	
		<rect x="168.455" y="271.167" transform="matrix(-0.7071 -0.7071 0.7071 -0.7071 84.9563 688.8837)" style="fill:#134A79;" width="33.391" height="111.359"/>
	<path style="fill:#134A79;" d="M358.316,82.85l-35.417,35.417l51.158,51.158l55.092-86.575
		C409.59,63.291,377.877,63.291,358.316,82.85z"/>
</g>
<path style="fill:#092339;" d="M429.15,153.685c19.561-19.561,19.561-51.273,0-70.834l-70.834,70.834l35.417,35.417L429.15,153.685z
	"/>
<path style="fill:#FAC15C;" d="M12.594,308.604L0.001,321.195l95.402,95.402l48.797-17.314l29.121-60.602
	C129.861,295.221,65.643,285.214,12.594,308.604z"/>
<polygon style="fill:#77AAD4;" points="311.093,74.98 145.815,240.259 208.779,303.222 310.791,239.957 374.057,137.944 "/>
<rect x="278.373" y="135.191" transform="matrix(-0.7071 -0.7071 0.7071 -0.7071 372.9826 658.6131)" style="fill:#4A8EC6;" width="89.043" height="233.737"/>
<polygon style="fill:#1D71B8;" points="451.005,356.559 390.009,295.564 342.787,342.786 405.436,436.916 "/>
<polygon style="fill:#134A79;" points="342.787,342.786 295.565,390.008 356.56,451.004 421.176,421.176 "/>
<polygon style="fill:#092339;" points="356.56,451.004 417.556,512 464.779,464.777 450.021,418.539 403.783,403.782 "/>
<rect x="424.5" y="367.536" transform="matrix(-0.7071 0.7071 -0.7071 -0.7071 1072.053 377.273)" style="fill:#134A79;" width="66.782" height="86.26"/>
<polygon style="fill:#77AAD4;" points="155.442,60.996 94.446,0 47.223,47.222 109.872,141.353 "/>
<polygon style="fill:#4A8EC6;" points="47.223,47.222 0.001,94.445 60.997,155.441 125.613,125.613 "/>
<polygon style="fill:#1D71B8;" points="108.219,108.218 60.997,155.441 121.993,216.436 169.215,169.214 154.458,122.975 "/>
<rect x="128.942" y="71.972" transform="matrix(0.7071 -0.7071 0.7071 0.7071 -33.8434 148.4994)" style="fill:#4A8EC6;" width="66.782" height="86.26"/>
<path style="fill:#F9B233;" d="M203.397,499.407c23.389-53.05,13.382-117.267-30.078-160.727l-11.805,11.806l-66.111,66.111
	L190.805,512L203.397,499.407z"/>
<g>
</g>
<g>
</g>
<g>
</g>
<g>
</g>
<g>
</g>
<g>
</g>
<g>
</g>
<g>
</g>
<g>
</g>
<g>
</g>
<g>
</g>
<g>
</g>
<g>
</g>
<g>
</g>
<g>
</g>
</svg>
