<?xml version="1.0" encoding="utf-8"?>
<!-- Generator: Adobe Illustrator 21.1.0, SVG Export Plug-In . SVG Version: 6.00 Build 0)  -->
<svg version="1.1" id="Layer_1" xmlns="http://www.w3.org/2000/svg" xmlns:xlink="http://www.w3.org/1999/xlink" x="0px" y="0px"
	 viewBox="0 0 512 512" style="enable-background:new 0 0 512 512;" xml:space="preserve">
<style type="text/css">
	.st0{fill:#8B7E7F;}
	.st1{fill:#FEE191;}
	.st2{fill:#FFD24D;}
</style>
<rect x="359.6" y="295.7" transform="matrix(0.7071 -0.7071 0.7071 0.7071 -133.7103 362.4961)" class="st0" width="22.2" height="93.9"/>
<path class="st0" d="M477.5,449.4c4.3-4.3,4.3-11.4,0-15.7l-66.4-66.4L395.5,383l66.4,66.4C466.2,453.8,473.2,453.8,477.5,449.4z"/>
<g>
	
		<rect x="166.9" y="103.8" transform="matrix(0.7071 -0.7071 0.7071 0.7071 -54.4608 170.0105)" class="st0" width="22.2" height="93.9"/>
	<path class="st0" d="M71.2,44c-4.3,4.3-4.3,11.4,0,15.7l66.4,66.4l15.7-15.7L86.8,44C82.5,39.6,75.5,39.6,71.2,44z"/>
</g>
<rect x="294.8" y="159.6" transform="matrix(0.7071 -0.7071 0.7071 0.7071 -20.5751 291.6629)" class="st0" width="93.9" height="22.2"/>
<rect x="146.9" y="223" transform="matrix(0.7071 -0.7071 0.7071 0.7071 -166.6605 235.9251)" class="st1" width="109.2" height="192.2"/>
<g>
</g>
<path class="st0" d="M231.5,281.9c-4.3-4.3-11.4-4.3-15.7,0l-66.4,66.4l15.7,15.7l66.4-66.4C235.9,293.3,235.9,286.3,231.5,281.9z"
	/>
<path class="st0" d="M86.4,411.4c-4.3,4.3-4.3,11.4,0,15.7s11.4,4.3,15.7,0l63.4-63.4L149.8,348L86.4,411.4z"/>
<path class="st0" d="M448.6,63.8c-4.3-4.3-11.4-4.3-15.7,0l-66.4,66.4l15.7,15.7l66.4-66.4C452.9,75.2,452.9,68.2,448.6,63.8z"/>
<rect x="224.1" y="145.8" transform="matrix(0.7071 -0.7071 0.7071 0.7071 -89.4554 267.9051)" class="st2" width="109.2" height="192.2"/>
</svg>
