<?xml version="1.0" encoding="iso-8859-1"?>
<!-- Generator: Adobe Illustrator 19.0.0, SVG Export Plug-In . SVG Version: 6.00 Build 0)  -->
<svg version="1.1" id="Layer_1" xmlns="http://www.w3.org/2000/svg" xmlns:xlink="http://www.w3.org/1999/xlink" x="0px" y="0px"
	 viewBox="0 0 512 512" style="enable-background:new 0 0 512 512;" xml:space="preserve">
<g>
	<rect x="218.548" y="173.772" style="fill:#96A8B0;" width="74.895" height="45.735"/>
	<rect x="219.077" y="173.317" style="fill:#96A8B0;" width="36.923" height="46.769"/>
	<path style="fill:#96A8B0;" d="M289.636,474.551h-35.057h-35.057c-4.821,0-8.729-3.908-8.729-8.729v-56.806h43.786h43.786v56.806
		C298.364,470.644,294.457,474.551,289.636,474.551z"/>
</g>
<path style="fill:#B9CED9;" d="M254.58,474.551h-35.057c-4.821,0-8.729-3.908-8.729-8.729v-56.806h43.786L254.58,474.551
	L254.58,474.551z"/>
<path style="fill:#96A8B0;" d="M444.308,334.064H66.462c-10.196,0-18.462-8.266-18.462-18.462s8.266-18.462,18.462-18.462h377.846
	c10.196,0,18.462,8.266,18.462,18.462S454.503,334.064,444.308,334.064z"/>
<path style="fill:#B9CED9;" d="M236.308,296.695H66.462c-10.196,0-18.462,8.266-18.462,18.462c0,10.196,8.266,18.462,18.462,18.462
	h169.846V296.695z"/>
<path style="fill:#364A57;" d="M316.98,416.711H195.019c-8.126,0-14.713-6.587-14.713-14.713V222.292
	c0-8.126,6.587-14.713,14.713-14.713H316.98c8.126,0,14.713,6.587,14.713,14.713V402
	C331.692,410.124,325.105,416.711,316.98,416.711z"/>
<path style="fill:#476172;" d="M256,416.711h-60.98c-8.126,0-14.713-6.587-14.713-14.713V222.292
	c0-8.126,6.587-14.713,14.713-14.713H256V416.711z"/>
<path style="fill:#0C92B6;" d="M493.538,225.008H386.462c-10.196,0-18.462,7.782-18.462,17.978v50.462v45.538v49.231
	c0,10.196,8.266,18.945,18.462,18.945h107.077c10.196,0,18.462-8.75,18.462-18.945v-49.231v-45.538v-50.462
	C512,232.79,503.734,225.008,493.538,225.008z"/>
<g>
	<rect x="404.923" y="339.471" style="fill:#364A57;" width="71.385" height="30.769"/>
	<rect x="404.923" y="261.932" style="fill:#364A57;" width="71.385" height="32"/>
</g>
<path style="fill:#01AEDB;" d="M125.538,225.008H18.462C8.266,225.008,0,232.79,0,242.986v50.462v45.538v49.231
	c0,10.196,8.266,18.945,18.462,18.945h107.077c10.196,0,18.462-8.75,18.462-18.945v-49.231v-45.538v-50.462
	C144,232.79,135.734,225.008,125.538,225.008z"/>
<g>
	<rect x="36.923" y="339.471" style="fill:#364A57;" width="71.385" height="30.769"/>
	<rect x="36.923" y="261.932" style="fill:#364A57;" width="71.385" height="32"/>
</g>
<path style="fill:#476172;" d="M256,172.833c-10.196,0-18.462-8.266-18.462-18.462V55.91c0-10.196,8.266-18.462,18.462-18.462
	c10.196,0,18.462,8.266,18.462,18.462v98.462C274.462,164.567,266.196,172.833,256,172.833z"/>
<path style="fill:#0C92B6;" d="M131.253,86.718c13.062,56.828,63.954,99.209,124.747,99.209l0,0
	c60.793,0,111.685-42.382,124.747-99.209H131.253z"/>
<path style="fill:#01AEDB;" d="M131.253,86.718c13.062,56.828,63.954,99.209,124.747,99.209l0,0V86.718H131.253z"/>
<g>
</g>
<g>
</g>
<g>
</g>
<g>
</g>
<g>
</g>
<g>
</g>
<g>
</g>
<g>
</g>
<g>
</g>
<g>
</g>
<g>
</g>
<g>
</g>
<g>
</g>
<g>
</g>
<g>
</g>
</svg>
